<?xml version="1.0" standalone="no"?>
<!DOCTYPE svg PUBLIC "-//W3C//DTD SVG 1.1//EN" 
"http://www.w3.org/Graphics/SVG/1.1/DTD/svg11.dtd">
<?xml-stylesheet type="text/css" href="/static/hadoop.css"?>

<svg width="761" height="240" version="1.1"
xmlns="http://www.w3.org/2000/svg">

<line x1="79" x2="79" y1="221" y2="19" class="taskgraphline" style="stroke:black"/>
<line x1="79" x2="682" y1="221" y2="221" class="taskgraphline" style="stroke:black"/>
<line x1="682" x2="682" y1="221" y2="19" class="taskgraphline" style="stroke:#CCCCCC"/>
<line x1="79" x2="682" y1="19" y2="19" class="taskgraphline" style="stroke:#CCCCCC"/>
<line x1="80" x2="80" y1="223" y2="218" class="taskgraphline" style="stroke:black"/>
<text x="80" y="235" style="fill:black;font-family:sans-serif;text-anchor:middle">0</text>
<rect width="10" height="67" x="80" y="153" style="fill:#00DD00"/>
<rect width="10" height="67" x="80" y="86" style="fill:#E50000"/>
<rect width="10" height="67" x="80" y="19" style="fill:#AAAAFF"/>
<line x1="91" x2="91" y1="223" y2="218" class="taskgraphline" style="stroke:black"/>
<text x="91" y="235" style="fill:black;font-family:sans-serif;text-anchor:middle">1</text>
<line x1="77" x2="82" y1="20" y2="20" class="taskgraphline" style="stroke:black"/>
<text x="70" y="24" style="fill:black;font-family:sans-serif;text-anchor:end">100</text>
<line x1="77" x2="82" y1="40" y2="40" class="taskgraphline" style="stroke:black"/>
<text x="70" y="44" style="fill:black;font-family:sans-serif;text-anchor:end">90</text>
<line x1="77" x2="82" y1="60" y2="60" class="taskgraphline" style="stroke:black"/>
<text x="70" y="64" style="fill:black;font-family:sans-serif;text-anchor:end">80</text>
<line x1="77" x2="82" y1="80" y2="80" class="taskgraphline" style="stroke:black"/>
<text x="70" y="84" style="fill:black;font-family:sans-serif;text-anchor:end">70</text>
<line x1="77" x2="82" y1="100" y2="100" class="taskgraphline" style="stroke:black"/>
<text x="70" y="104" style="fill:black;font-family:sans-serif;text-anchor:end">60</text>
<line x1="77" x2="82" y1="120" y2="120" class="taskgraphline" style="stroke:black"/>
<text x="70" y="124" style="fill:black;font-family:sans-serif;text-anchor:end">50</text>
<line x1="77" x2="82" y1="140" y2="140" class="taskgraphline" style="stroke:black"/>
<text x="70" y="144" style="fill:black;font-family:sans-serif;text-anchor:end">40</text>
<line x1="77" x2="82" y1="160" y2="160" class="taskgraphline" style="stroke:black"/>
<text x="70" y="164" style="fill:black;font-family:sans-serif;text-anchor:end">30</text>
<line x1="77" x2="82" y1="180" y2="180" class="taskgraphline" style="stroke:black"/>
<text x="70" y="184" style="fill:black;font-family:sans-serif;text-anchor:end">20</text>
<line x1="77" x2="82" y1="200" y2="200" class="taskgraphline" style="stroke:black"/>
<text x="70" y="204" style="fill:black;font-family:sans-serif;text-anchor:end">10</text>
<line x1="77" x2="82" y1="220" y2="220" class="taskgraphline" style="stroke:black"/>
<text x="70" y="224" style="fill:black;font-family:sans-serif;text-anchor:end">0</text>
<rect width="14" height="14" x="685" y="40" style="fill:#00DD00"/>
<text x="705" y="50" style="fill:black;font-family:sans-serif;text-anchor:start">copy</text>
<rect width="14" height="14" x="685" y="70" style="fill:#E50000"/>
<text x="705" y="80" style="fill:black;font-family:sans-serif;text-anchor:start">sort</text>
<rect width="14" height="14" x="685" y="100" style="fill:#AAAAFF"/>
<text x="705" y="110" style="fill:black;font-family:sans-serif;text-anchor:start">reduce</text>
</svg>