<?xml version="1.0" standalone="no"?>
<!DOCTYPE svg PUBLIC "-//W3C//DTD SVG 1.1//EN" 
"http://www.w3.org/Graphics/SVG/1.1/DTD/svg11.dtd">
<?xml-stylesheet type="text/css" href="/static/hadoop.css"?>

<svg width="806" height="240" version="1.1"
xmlns="http://www.w3.org/2000/svg">

<line x1="79" x2="79" y1="221" y2="19" class="taskgraphline" style="stroke:black"/>
<line x1="79" x2="727" y1="221" y2="221" class="taskgraphline" style="stroke:black"/>
<line x1="727" x2="727" y1="221" y2="19" class="taskgraphline" style="stroke:#CCCCCC"/>
<line x1="79" x2="727" y1="19" y2="19" class="taskgraphline" style="stroke:#CCCCCC"/>
<line x1="80" x2="80" y1="223" y2="218" class="taskgraphline" style="stroke:black"/>
<text x="80" y="235" style="fill:black;font-family:sans-serif;text-anchor:middle">0</text>
<rect width="2" height="200" x="80" y="20" style="fill:#AAAAFF"/>
<rect width="2" height="200" x="82" y="20" style="fill:#AAAAFF"/>
<rect width="2" height="200" x="84" y="20" style="fill:#AAAAFF"/>
<rect width="2" height="200" x="86" y="20" style="fill:#AAAAFF"/>
<rect width="2" height="200" x="88" y="20" style="fill:#AAAAFF"/>
<rect width="2" height="200" x="91" y="20" style="fill:#AAAAFF"/>
<rect width="2" height="200" x="93" y="20" style="fill:#AAAAFF"/>
<rect width="2" height="200" x="95" y="20" style="fill:#AAAAFF"/>
<rect width="2" height="200" x="97" y="20" style="fill:#AAAAFF"/>
<rect width="2" height="200" x="99" y="20" style="fill:#AAAAFF"/>
<rect width="2" height="200" x="102" y="20" style="fill:#AAAAFF"/>
<rect width="2" height="200" x="104" y="20" style="fill:#AAAAFF"/>
<rect width="2" height="200" x="106" y="20" style="fill:#AAAAFF"/>
<rect width="2" height="200" x="108" y="20" style="fill:#AAAAFF"/>
<rect width="2" height="200" x="110" y="20" style="fill:#AAAAFF"/>
<rect width="2" height="200" x="113" y="20" style="fill:#AAAAFF"/>
<rect width="2" height="200" x="115" y="20" style="fill:#AAAAFF"/>
<rect width="2" height="200" x="117" y="20" style="fill:#AAAAFF"/>
<rect width="2" height="200" x="119" y="20" style="fill:#AAAAFF"/>
<rect width="2" height="200" x="121" y="20" style="fill:#AAAAFF"/>
<rect width="2" height="200" x="124" y="20" style="fill:#AAAAFF"/>
<rect width="2" height="200" x="126" y="20" style="fill:#AAAAFF"/>
<rect width="2" height="200" x="128" y="20" style="fill:#AAAAFF"/>
<rect width="2" height="200" x="130" y="20" style="fill:#AAAAFF"/>
<line x1="132" x2="132" y1="223" y2="218" class="taskgraphline" style="stroke:black"/>
<text x="132" y="235" style="fill:black;font-family:sans-serif;text-anchor:middle">24</text>
<rect width="2" height="200" x="132" y="20" style="fill:#AAAAFF"/>
<rect width="2" height="200" x="135" y="20" style="fill:#AAAAFF"/>
<rect width="2" height="200" x="137" y="20" style="fill:#AAAAFF"/>
<rect width="2" height="200" x="139" y="20" style="fill:#AAAAFF"/>
<rect width="2" height="200" x="141" y="20" style="fill:#AAAAFF"/>
<rect width="2" height="200" x="143" y="20" style="fill:#AAAAFF"/>
<rect width="2" height="200" x="146" y="20" style="fill:#AAAAFF"/>
<rect width="2" height="200" x="148" y="20" style="fill:#AAAAFF"/>
<rect width="2" height="200" x="150" y="20" style="fill:#AAAAFF"/>
<rect width="2" height="200" x="152" y="20" style="fill:#AAAAFF"/>
<rect width="2" height="200" x="154" y="20" style="fill:#AAAAFF"/>
<rect width="2" height="200" x="157" y="20" style="fill:#AAAAFF"/>
<rect width="2" height="200" x="159" y="20" style="fill:#AAAAFF"/>
<rect width="2" height="200" x="161" y="20" style="fill:#AAAAFF"/>
<rect width="2" height="200" x="163" y="20" style="fill:#AAAAFF"/>
<line x1="185" x2="185" y1="223" y2="218" class="taskgraphline" style="stroke:black"/>
<text x="185" y="235" style="fill:black;font-family:sans-serif;text-anchor:middle">48</text>
<line x1="238" x2="238" y1="223" y2="218" class="taskgraphline" style="stroke:black"/>
<text x="238" y="235" style="fill:black;font-family:sans-serif;text-anchor:middle">72</text>
<line x1="291" x2="291" y1="223" y2="218" class="taskgraphline" style="stroke:black"/>
<text x="291" y="235" style="fill:black;font-family:sans-serif;text-anchor:middle">96</text>
<line x1="344" x2="344" y1="223" y2="218" class="taskgraphline" style="stroke:black"/>
<text x="344" y="235" style="fill:black;font-family:sans-serif;text-anchor:middle">120</text>
<line x1="396" x2="396" y1="223" y2="218" class="taskgraphline" style="stroke:black"/>
<text x="396" y="235" style="fill:black;font-family:sans-serif;text-anchor:middle">144</text>
<line x1="449" x2="449" y1="223" y2="218" class="taskgraphline" style="stroke:black"/>
<text x="449" y="235" style="fill:black;font-family:sans-serif;text-anchor:middle">168</text>
<line x1="502" x2="502" y1="223" y2="218" class="taskgraphline" style="stroke:black"/>
<text x="502" y="235" style="fill:black;font-family:sans-serif;text-anchor:middle">192</text>
<line x1="555" x2="555" y1="223" y2="218" class="taskgraphline" style="stroke:black"/>
<text x="555" y="235" style="fill:black;font-family:sans-serif;text-anchor:middle">216</text>
<line x1="77" x2="82" y1="20" y2="20" class="taskgraphline" style="stroke:black"/>
<text x="70" y="24" style="fill:black;font-family:sans-serif;text-anchor:end">100</text>
<line x1="77" x2="82" y1="40" y2="40" class="taskgraphline" style="stroke:black"/>
<text x="70" y="44" style="fill:black;font-family:sans-serif;text-anchor:end">90</text>
<line x1="77" x2="82" y1="60" y2="60" class="taskgraphline" style="stroke:black"/>
<text x="70" y="64" style="fill:black;font-family:sans-serif;text-anchor:end">80</text>
<line x1="77" x2="82" y1="80" y2="80" class="taskgraphline" style="stroke:black"/>
<text x="70" y="84" style="fill:black;font-family:sans-serif;text-anchor:end">70</text>
<line x1="77" x2="82" y1="100" y2="100" class="taskgraphline" style="stroke:black"/>
<text x="70" y="104" style="fill:black;font-family:sans-serif;text-anchor:end">60</text>
<line x1="77" x2="82" y1="120" y2="120" class="taskgraphline" style="stroke:black"/>
<text x="70" y="124" style="fill:black;font-family:sans-serif;text-anchor:end">50</text>
<line x1="77" x2="82" y1="140" y2="140" class="taskgraphline" style="stroke:black"/>
<text x="70" y="144" style="fill:black;font-family:sans-serif;text-anchor:end">40</text>
<line x1="77" x2="82" y1="160" y2="160" class="taskgraphline" style="stroke:black"/>
<text x="70" y="164" style="fill:black;font-family:sans-serif;text-anchor:end">30</text>
<line x1="77" x2="82" y1="180" y2="180" class="taskgraphline" style="stroke:black"/>
<text x="70" y="184" style="fill:black;font-family:sans-serif;text-anchor:end">20</text>
<line x1="77" x2="82" y1="200" y2="200" class="taskgraphline" style="stroke:black"/>
<text x="70" y="204" style="fill:black;font-family:sans-serif;text-anchor:end">10</text>
<line x1="77" x2="82" y1="220" y2="220" class="taskgraphline" style="stroke:black"/>
<text x="70" y="224" style="fill:black;font-family:sans-serif;text-anchor:end">0</text>
</svg>